<svg width="85" height="129" viewBox="0 0 85 129" fill="none" xmlns="http://www.w3.org/2000/svg">
<path d="M64.1375 42.9935C69.7275 42.8258 75.0323 40.4874 78.927 36.4743C82.8217 32.4612 85 27.0889 85 21.4968C85 15.9046 82.8217 10.5324 78.927 6.51925C75.0323 2.50613 69.7275 0.167754 64.1375 0H21.1351C15.5452 0.167754 10.2404 2.50613 6.34569 6.51925C2.45098 10.5324 0.272662 15.9046 0.272662 21.4968C0.272662 27.0889 2.45098 32.4612 6.34569 36.4743C10.2404 40.4874 15.5452 42.8258 21.1351 42.9935C15.4963 43.0912 10.1215 45.3997 6.1683 49.4217C2.21515 53.4437 0 58.8574 0 64.4968C0 70.1361 2.21515 75.5498 6.1683 79.5719C10.1215 83.5939 15.4963 85.9023 21.1351 86C15.5239 86.1375 10.1887 88.463 6.26861 92.48C2.34856 96.4971 0.154287 101.887 0.154287 107.5C0.154287 113.113 2.34856 118.503 6.26861 122.52C10.1887 126.537 15.5239 128.863 21.1351 129C26.8377 128.997 32.3056 126.729 36.3373 122.697C40.369 118.664 42.6346 113.196 42.6363 107.494V42.9935H64.1375Z" fill="black"/>
</svg>
