<svg width="168" height="164" viewBox="0 0 168 164" fill="none" xmlns="http://www.w3.org/2000/svg">
<path fill-rule="evenodd" clip-rule="evenodd" d="M84 0C37.59 0 0 37.6232 0 84.0741C0 121.277 24.045 152.7 57.435 163.839C61.635 164.575 63.21 162.053 63.21 159.846C63.21 157.849 63.105 151.228 63.105 144.187C42 148.075 36.54 139.038 34.86 134.308C33.915 131.891 29.82 124.43 26.25 122.433C23.31 120.857 19.11 116.968 26.145 116.863C32.76 116.758 37.485 122.958 39.06 125.481C46.62 138.197 58.695 134.624 63.525 132.417C64.26 126.952 66.465 123.274 68.88 121.172C50.19 119.07 30.66 111.819 30.66 79.6602C30.66 70.5171 33.915 62.9505 39.27 57.0653C38.43 54.9634 35.49 46.3458 40.11 34.7857C40.11 34.7857 47.145 32.5787 63.21 43.4032C69.93 41.5116 77.07 40.5657 84.21 40.5657C91.35 40.5657 98.49 41.5116 105.21 43.4032C121.275 32.4736 128.31 34.7857 128.31 34.7857C132.93 46.3458 129.99 54.9634 129.15 57.0653C134.505 62.9505 137.76 70.412 137.76 79.6602C137.76 111.924 118.125 119.07 99.435 121.172C102.48 123.799 105.105 128.844 105.105 136.725C105.105 147.97 105 157.008 105 159.846C105 162.053 106.575 164.68 110.775 163.839C127.45 158.204 141.94 147.478 152.206 133.169C162.471 118.86 167.995 101.69 168 84.0741C168 37.6232 130.41 0 84 0Z" fill="black"/>
</svg>
