<svg width="152" height="152" viewBox="0 0 152 152" fill="none" xmlns="http://www.w3.org/2000/svg">
<path fill-rule="evenodd" clip-rule="evenodd" d="M51.077 32.0649H66.9106L89.6788 108.344H75.9258L70.2626 86.6163H48.0724L42.2934 108.345H30.158L51.0773 35.6479V32.0649H51.077ZM67.1418 75.4057L59.2827 43.1597L51.1925 75.4051H67.1418V75.4057ZM113.256 51.6557H100.774V108.345H113.256V51.6562V51.6557ZM106.854 29.6314C102.81 29.6314 99.5324 32.8718 99.5324 36.8692C99.5324 40.8666 102.81 44.1073 106.854 44.1073C110.898 44.1073 114.176 40.8669 114.176 36.8695C114.176 32.8721 110.898 29.6314 106.854 29.6314ZM152 152H0V0H152V152Z" fill="black"/>
</svg>
