<svg width="152" height="143" viewBox="0 0 152 143" fill="none" xmlns="http://www.w3.org/2000/svg">
<path fill-rule="evenodd" clip-rule="evenodd" d="M0 0H152V143H0V0ZM116.198 119.882C109.149 119.882 105.165 116.426 102.106 111.719L90.497 118.064C94.6897 125.858 103.259 131.804 116.527 131.804C130.093 131.804 140.195 125.179 140.195 113.077C140.195 101.858 133.342 96.8706 121.207 91.9669L117.635 90.5309C111.505 88.0284 108.851 86.4018 108.851 82.368C108.851 79.1088 111.511 76.6123 115.691 76.6123C119.789 76.6123 122.43 78.2389 124.881 82.368L136.002 75.653C131.296 67.8654 124.773 64.8922 115.691 64.8922C102.936 64.8922 94.772 72.5665 94.772 82.648C94.772 93.5816 101.612 98.7594 111.923 102.889L115.495 104.33C122.012 107.012 125.894 108.644 125.894 113.25C125.894 117.099 122.113 119.882 116.198 119.882V119.882ZM60.8443 119.792C55.936 119.792 53.8903 116.634 51.6483 112.881L40.0203 119.506C43.3897 126.215 50.0143 131.78 61.446 131.78C74.1063 131.78 82.7767 125.447 82.7767 111.534V65.6549H68.495V111.355C68.495 118.07 65.531 119.792 60.838 119.792H60.8443Z" fill="black"/>
</svg>
