<svg width="192" height="223" viewBox="0 0 192 223" fill="none" xmlns="http://www.w3.org/2000/svg">
<g clip-path="url(#clip0_94_35)">
<path d="M131.25 52.7395C130.314 52.7395 129.69 52.8858 129.06 53.067V53.1785H129.156C129.594 54.1193 130.314 54.851 130.872 55.7221C131.31 56.7047 131.682 57.7152 132.09 58.6978L132.216 58.5514C132.966 57.9312 133.344 56.9556 133.344 55.4643C133.032 55.0252 132.966 54.5583 132.69 54.1541C132.378 53.5339 131.688 53.2133 131.25 52.7395ZM46.158 175.341H38.754C38.5298 161.653 37.8112 147.982 36.6 134.364H36.54L25.26 175.341H19.602L8.412 134.364H8.316C7.44639 148.002 6.92616 161.667 6.756 175.341H0.0059967C0.371494 158.157 1.46683 141.005 3.288 123.946H12.474L23.16 161.696H23.22L34.002 123.946H42.75C44.688 142.678 45.846 159.807 46.188 175.341H46.158ZM78.282 137.417C75.282 156.434 71.28 170.267 66.378 178.867C62.502 185.508 58.284 188.846 53.688 188.846C52.47 188.846 50.97 188.407 49.158 187.536V182.964C50.064 183.111 51.096 183.215 52.254 183.215C54.408 183.215 56.13 182.491 57.444 181.146C59.004 179.473 59.79 177.592 59.79 175.522C59.79 174.072 59.196 171.166 57.948 166.741L49.854 137.417H57.138L62.952 159.34C64.266 164.351 64.83 167.8 64.578 169.794C67.794 159.919 70.014 149.103 71.268 137.417H78.282ZM176.904 175.341H155.844V123.946H162.936V169.027H176.904V175.341ZM150.342 176.581L142.218 171.933C142.938 171.243 143.622 170.483 144.252 169.612C147.72 164.929 149.442 157.926 149.442 148.706C149.442 131.681 143.694 123.194 132.192 123.194C126.564 123.194 122.16 125.333 119.004 129.654C115.566 134.371 113.814 141.34 113.814 150.525C113.814 159.563 115.344 166.17 118.41 170.414C121.224 174.191 125.442 176.114 131.1 176.114C133.194 176.114 135.132 175.822 136.884 175.208L147.48 182.393L150.384 176.588L150.342 176.581ZM124.002 165.034C122.19 161.696 121.314 156.323 121.314 148.915C121.314 135.96 124.692 129.5 131.472 129.5C135.006 129.5 137.628 131.061 139.284 134.148C141.066 137.521 141.972 142.825 141.972 150.156C141.972 163.187 138.564 169.759 131.814 169.759C128.25 169.759 125.658 168.198 123.972 165.111L124.002 165.034ZM110.748 161.117C110.748 165.473 109.374 169.069 106.59 171.821C103.842 174.616 100.182 176.031 95.526 176.031C91.182 176.031 87.024 174.435 82.932 171.236L84.84 166.811C88.338 168.846 91.494 169.863 94.374 169.863C97.032 169.863 99.126 169.173 100.626 167.828C102.126 166.449 103.032 164.525 103.032 162.093C103.032 159.041 101.19 156.428 97.842 154.253C94.746 152.26 88.53 148.156 88.53 148.156C85.152 145.291 83.496 142.239 83.496 137.194C83.496 133.019 84.744 129.681 87.246 127.138C89.778 124.525 92.994 123.256 96.996 123.256C100.978 123.216 104.881 124.542 108.216 127.068L106.5 131.493C103.819 130.122 100.927 129.394 97.998 129.354C95.718 129.354 93.966 130.009 92.748 131.277C91.53 132.546 90.78 134.141 90.78 136.141C90.78 139.194 92.658 141.807 96.09 144.051C99.246 146.044 105.588 150.26 105.588 150.26C109.056 153.089 110.778 156.142 110.778 161.11L110.748 161.117ZM185.784 106.712C181.5 106.601 178.188 107.11 175.41 108.489C174.63 108.852 173.346 108.852 173.22 110.016C173.658 110.524 173.718 111.326 174.096 112.009C174.75 113.242 175.848 114.915 176.88 115.786C178.008 116.803 179.13 117.821 180.288 118.692C182.382 120.183 184.728 121.054 186.786 122.538C187.944 123.41 189.132 124.532 190.284 125.444C190.878 125.918 191.25 126.755 192 127.04V126.859C191.622 126.316 191.532 125.514 191.154 124.866C190.62 124.246 190.092 123.702 189.558 123.089C187.993 120.676 186.117 118.558 183.996 116.81C182.28 115.465 178.53 113.577 177.84 111.291L177.744 111.145C178.902 111.033 180.276 110.524 181.398 110.162C183.21 109.618 184.896 109.723 186.774 109.179C187.636 108.92 188.49 108.629 189.336 108.308V107.765C188.37 106.643 187.65 105.117 186.648 104.064C183.887 101.258 180.94 98.7091 177.834 96.4405C176.148 95.1722 174.024 94.3708 172.242 93.3185C171.618 92.9561 170.526 92.7749 170.178 92.1547C169.212 90.7749 168.648 88.9979 167.958 87.3602C166.388 83.8173 164.93 80.2098 163.584 76.5447C162.618 74.1126 162.054 71.7154 160.866 69.4645C155.364 58.8998 149.364 52.5165 140.178 46.2376C138.21 44.9275 135.834 44.3839 133.332 43.694C131.988 43.6243 130.674 43.5128 129.33 43.4432C128.454 43.0041 127.614 41.8473 126.864 41.2619C123.804 39.011 115.926 34.1817 113.706 40.572C112.266 44.6348 115.83 48.5931 117.084 50.6279C117.99 52.0774 119.148 53.6803 119.802 55.2761C120.18 56.3632 120.27 57.4922 120.648 58.6141C121.494 61.3389 122.304 64.3843 123.432 66.9278C124.026 68.238 124.65 69.6108 125.4 70.7746C125.838 71.4645 126.588 71.7572 126.744 72.8792C125.994 74.1475 125.934 76.0012 125.526 77.5273C123.588 84.5658 124.338 93.2418 127.056 98.4336C127.932 99.9946 129.96 103.409 132.684 102.099C135.09 100.977 134.562 97.451 135.246 94.329C135.402 93.5694 135.306 93.0955 135.624 92.5868V92.7331C136.404 94.4753 137.154 96.1478 137.844 97.89C139.47 100.942 142.374 104.099 144.78 106.204C146.064 107.326 147.06 109.256 148.656 109.939V109.758H148.53C148.188 109.214 147.75 108.956 147.312 108.524C146.299 107.359 145.358 106.11 144.498 104.789C142.278 101.305 140.28 97.4579 138.528 93.4997C137.684 91.5439 136.913 89.5467 136.218 87.5135C135.906 86.7888 135.906 85.6598 135.372 85.2975C134.562 86.6424 133.374 87.7993 132.81 89.5066C131.778 92.1547 131.682 95.4579 131.28 98.8726C131.094 98.9423 131.184 98.8726 131.094 99.0189C129.378 98.5102 128.784 96.4753 128.154 94.7332C126.528 90.308 126.276 83.2278 127.656 78.1475C128.034 76.8374 129.624 72.7398 129 71.5063C128.658 70.3077 127.596 69.6178 127.032 68.677C126.312 67.5132 125.592 66.0289 125.094 64.7188C123.81 61.2344 123.186 57.3876 121.782 53.9033C121.158 52.3074 120.03 50.6349 119.124 49.1506C118.092 47.4781 116.97 46.2864 116.184 44.3212C115.902 43.6313 115.53 42.5093 115.968 41.7776C116.064 41.2689 116.28 41.0877 116.718 40.9414C117.408 40.2515 119.406 41.1226 120.096 41.5198C122.064 42.4257 123.72 43.2968 125.376 44.6069C126.126 45.2272 126.936 46.384 127.908 46.7115H129.036C130.752 47.1505 132.66 46.823 134.256 47.4014C137.1 48.4537 139.662 49.9798 141.972 51.6454C149.036 56.9123 154.781 64.2481 158.628 72.914C159.282 74.3287 159.564 75.6388 160.158 77.1231C161.25 80.2103 162.66 83.2905 163.782 86.2313C164.904 89.1721 165.972 92.1478 167.592 94.5798C168.402 95.89 171.594 96.5729 173.058 97.228C174.12 97.8064 175.776 98.3151 176.712 98.9702C178.554 100.28 180.366 101.765 182.088 103.214C182.964 103.904 185.622 105.465 185.778 106.699L185.784 106.712Z" fill="black"/>
</g>
<defs>
<clipPath id="clip0_94_35">
<rect width="192" height="223" fill="white"/>
</clipPath>
</defs>
</svg>
