<svg width="156" height="181" viewBox="0 0 156 181" fill="none" xmlns="http://www.w3.org/2000/svg">
<path d="M78 41.4792C34.2615 41.4792 0 63.0107 0 90.5001C0 117.989 34.2615 139.521 78 139.521C121.739 139.521 156 117.989 156 90.5001C156 63.0107 121.739 41.4792 78 41.4792ZM69.901 56.5626H78.416L75.712 71.6459H83.317C88.14 71.6459 91.377 72.4302 93.223 74.3835C95.0235 76.3142 95.5695 79.4817 94.848 83.7955L91.468 101.813H82.81L85.9235 85.153C86.3005 82.8679 86.151 81.2766 85.488 80.4395C84.8315 79.6024 83.382 79.1876 81.211 79.1876H74.3925L70.278 101.813H61.75L69.901 56.5626V56.5626ZM32.5 71.6459H49.829C58.0905 71.6459 63.0955 78.0714 61.139 87.6569C58.864 98.7959 52.78 101.813 41.574 101.813H36.218L34.5215 113.125H25.909L32.5 71.6459ZM100.75 71.6459H118.079C126.341 71.6459 131.346 78.0714 129.389 87.6569C127.114 98.7959 121.023 101.813 109.824 101.813H104.468L102.771 113.125H94.159L100.75 71.6459ZM39.8775 79.1876L37.427 94.2709H42.9845C47.7945 94.2709 52.2665 93.6374 53.014 85.3114C53.2935 82.0911 52.1365 79.1876 46.579 79.1876H39.8775ZM108.128 79.1876L105.677 94.2709H111.235C116.045 94.2709 120.517 93.6374 121.264 85.3114C121.544 82.0911 120.393 79.1876 114.829 79.1876H108.128V79.1876Z" fill="black"/>
</svg>
