<svg width="125" height="125" viewBox="0 0 125 125" fill="none" xmlns="http://www.w3.org/2000/svg">
<path fill-rule="evenodd" clip-rule="evenodd" d="M125 125H0V0H125V125ZM99.2212 52.9819V43.2871C97.6245 42.5762 88.4812 39.9607 81.2578 42.717C70.8525 46.6873 71.2263 58.6477 75.1748 63.3418C80.2908 69.4238 93.0171 71.6914 90.9346 77.6611C89.8562 80.7524 84.8218 81.2905 80.3833 80.2527C76.25 79.2864 72.6563 76.8381 72.6563 76.8381V87.103C72.6563 87.103 76.2085 89.0835 80.5684 89.5547C86.1575 90.1584 93.1633 89.0183 96.6731 85.8987C102.921 80.3452 103.88 68.043 92.0405 62.3303C82.1882 57.5769 82.3503 56.2202 82.4194 53.782C82.5122 50.5164 89.3687 48.5061 99.2212 52.9819V52.9819ZM46.0913 25.7751C54.2888 26.0603 66.3359 29.8384 66.3359 45.9485C66.3359 62.0586 51.5962 67.345 38.1467 66.1931V89.0039H28.1274V25.9888C28.1274 25.9888 37.8933 25.49 46.0911 25.7751H46.0913ZM48.6931 56.2134C53.0134 54.637 55.8215 51.248 55.8215 45.9839C55.8215 40.4026 52.9639 36.623 48.5933 35.5554C43.8604 34.3989 38.1467 35.0806 38.1467 35.0806V57.064C38.1467 57.064 46.0557 57.1758 48.6931 56.2134V56.2134Z" fill="black"/>
</svg>
