<svg width="152" height="143" viewBox="0 0 152 143" fill="none" xmlns="http://www.w3.org/2000/svg">
<path d="M76 0C117.8 0 152 32.175 152 71.5C152 110.825 117.8 143 76 143C34.2 143 0 110.825 0 71.5C0 32.175 34.2 0 76 0ZM60.8 95.1844C61.75 99.2063 61.75 102.781 60.8 105.909L60.325 107.25C60.325 107.697 59.85 108.144 59.85 108.144C58.9 109.931 57.95 111.272 56.525 113.059C52.25 117.528 46.075 119.316 43.225 117.975C40.375 116.634 41.8 109.931 47.025 105.016C52.725 99.6531 60.325 96.0781 60.325 96.0781L60.8 95.1844V95.1844ZM123.5 30.3875C120.175 17.875 97.85 13.4063 76.475 20.5563C64.125 25.025 50.35 31.7281 40.375 40.2188C28.5 50.4969 27.075 59.4344 27.55 63.0094C30.4 75.9688 49.4 84.9063 57.475 91.1625C55.1 92.0563 38 100.1 34.2 108.591C29.925 117.528 34.675 123.784 38 124.231C47.975 126.913 58.425 121.997 63.65 114.4C68.875 106.803 68.4 97.4188 66.025 92.5031C69.7201 91.4296 73.6478 91.2756 77.425 92.0563C90.725 93.3969 93.575 101.441 92.625 104.569C91.675 107.697 89.3 109.484 88.35 110.378C87.4 110.825 86.925 111.272 87.4 111.272C87.4 111.719 87.875 111.719 88.825 111.719C89.775 111.719 95.95 109.038 95.95 102.781C96.425 95.1844 88.35 86.6938 74.575 86.6938C68.875 86.6938 65.075 87.1406 62.7 88.0344C62.7 87.5875 62.225 87.5875 62.225 87.5875C53.675 79.0969 38 72.8406 38.475 61.2219C38.475 57.2 40.375 46.0281 68.875 32.6219C92.15 21.45 111.15 24.5781 114.475 31.2813C119.225 40.6656 104.5 58.5406 80.275 61.2219C70.775 62.1156 66.025 58.9875 65.075 57.6469C63.65 56.3063 63.65 56.3063 63.175 56.3063C62.225 56.7531 62.7 57.6469 63.175 58.5406C64.125 60.3281 66.975 63.4563 72.2 65.2438C76.475 66.5844 87.4 67.4781 100.7 62.5625C115.425 57.2 126.825 42.4531 123.5 29.9406V30.3875Z" fill="black"/>
</svg>
